<svg xmlns="http://www.w3.org/2000/svg" xmlns:svg="http://www.w3.org/2000/svg" id="svg2" width="1000" height="310" version="1.1" viewBox="0 0 1000 310"><defs id="defs4"><style id="style3422" type="text/css"/></defs><metadata id="metadata7"/><g id="layer1" transform="translate(0,-742.36222)"><g style="font-style:normal;font-weight:400;line-height:0%;font-family:sans-serif;letter-spacing:0;word-spacing:0;fill:#1c366b;fill-opacity:1;stroke:none;stroke-width:1px;stroke-linecap:butt;stroke-linejoin:miter;stroke-opacity:1" id="text3361" aria-label="Scale the work you need."><path style="font-style:normal;font-variant:normal;font-weight:500;font-stretch:normal;font-size:27.5px;line-height:1.25;font-family:montserrat;-inkscape-font-specification:'montserrat Medium';text-align:center;text-anchor:middle;fill:#1c366b;fill-opacity:1" id="path79" d="m 130.12305,967.08203 v 20.4043 h 4.29101 v -20.4043 z m 44.9414,0 v 20.4043 h 2.64063 v -7.50586 c 0,-3.1625 1.81414,-4.83985 4.61914,-4.83985 2.5025,0 3.93359,1.40172 3.93359,4.26172 v 8.08399 h 2.63867 v -8.38672 c 0,-4.29 -2.50132,-6.32422 -6.04882,-6.32422 -2.2275,0 -4.04258,0.79672 -5.14258,2.19922 v -7.89258 z m 95.875,0 v 20.4043 h 2.63867 V 983.5 l 3.0254,-2.80469 5.47265,6.79102 h 3.24414 l -6.73633,-8.55078 6.13282,-6.02344 h -3.19141 l -7.94727,7.25977 V 967.08203 Z M 86.599609,967.9082 c -5.4725,0 -8.111328,2.72164 -8.111328,5.99414 0,7.15 11.191406,4.67485 11.191407,8.27735 0,1.1825 -1.072891,2.0625 -3.712891,2.0625 -2.31,0 -4.729063,-0.82532 -6.351563,-2.00781 l -1.511718,3.35546 c 1.705,1.32 4.783437,2.22657 7.835937,2.22657 5.5,0 8.167969,-2.7493 8.167969,-5.9668 0,-7.0675 -11.191406,-4.62047 -11.191406,-8.16797 0,-1.21 1.01625,-2.19922 3.65625,-2.19922 1.705,0 3.548437,0.49422 5.335937,1.51172 l 1.375,-3.38281 c -1.7875,-1.1275 -4.263594,-1.70313 -6.683594,-1.70313 z m 77.462891,1.81446 v 3.18945 h -2.47461 v 2.17187 h 2.47461 v 8.00391 c 0,2.9425 1.67859,4.56445 4.62109,4.56445 1.1825,0 2.39196,-0.33007 3.18946,-1.01757 l -0.82617,-1.89844 c -0.55001,0.44 -1.2925,0.6875 -2.0625,0.6875 -1.45751,0 -2.28126,-0.87977 -2.28126,-2.44727 v -7.89258 h 4.17969 v -2.17187 h -4.17969 v -3.18945 z m -60.03711,2.75 c -4.812497,0 -8.249999,3.16218 -8.249999,7.61718 0,4.455 3.437502,7.61719 8.249999,7.61719 3.1075,0 5.55641,-1.37523 6.62891,-3.74023 l -3.32813,-1.81446 c -0.7975,1.43 -1.98062,2.03516 -3.32812,2.03516 -2.1725,0 -3.87696,-1.51266 -3.87696,-4.09766 0,-2.585 1.70446,-4.09765 3.87696,-4.09765 1.3475,0 2.53062,0.63265 3.32812,2.03515 l 3.32813,-1.78711 c -1.0725,-2.42 -3.52141,-3.76757 -6.62891,-3.76757 z m 15.0918,0 c -2.365,0 -4.75641,0.63211 -6.37891,1.78711 l 1.53906,2.99804 c 1.0725,-0.8525 2.69618,-1.375 4.26368,-1.375 2.31,0 3.41015,1.07157 3.41015,2.91407 h -3.41015 c -4.51,0 -6.35352,1.81523 -6.35352,4.42773 0,2.5575 2.06234,4.48242 5.52734,4.48242 2.1725,0 3.71227,-0.715 4.50977,-2.0625 v 1.8418 h 4.01562 v -8.44141 c 0,-4.4825 -2.61304,-6.57226 -7.12304,-6.57226 z m 26.07031,0 c -4.51,0 -7.89258,3.18968 -7.89258,7.61718 0,4.4 3.32641,7.61719 8.44141,7.61719 2.6675,0 4.73047,-0.82508 6.10547,-2.39258 l -2.28125,-2.47461 c -1.0175,0.9625 -2.14539,1.42969 -3.71289,1.42969 -2.255,0 -3.82383,-1.1282 -4.23633,-2.9707 h 11.19336 c 0.0275,-0.3575 0.082,-0.8243 0.082,-1.1543 0,-4.7575 -3.35422,-7.67187 -7.69922,-7.67187 z m 54.69727,0.30273 c -4.2075,0 -7.31446,3.10633 -7.31446,7.42383 0,4.345 3.13344,7.45312 7.83594,7.45312 2.42,0 4.42805,-0.82523 5.74805,-2.36523 l -1.45703,-1.70508 c -1.0725,1.1825 -2.50204,1.75977 -4.20704,1.75977 -2.8875,0 -4.95125,-1.70422 -5.28125,-4.26172 h 11.82618 c 0.0275,-0.2475 0.0547,-0.57688 0.0547,-0.79688 0,-4.4825 -2.99757,-7.50781 -7.20507,-7.50781 z m 48.77539,0 c -4.3725,0 -7.58985,3.07883 -7.58985,7.42383 0,4.345 3.21735,7.45312 7.58985,7.45312 4.3725,0 7.5625,-3.10812 7.5625,-7.45312 0,-4.345 -3.19,-7.42383 -7.5625,-7.42383 z m 19.05078,0 c -2.5575,0 -4.37164,0.87898 -5.30664,2.58399 v -2.44727 h -2.5293 v 14.57422 h 2.63867 v -7.25977 c 0,-3.19 1.76125,-4.92187 4.59375,-4.92187 0.1925,0 0.38352,-1.6e-4 0.60352,0.0273 z m -51.90821,0.13672 5.41797,14.57422 h 2.5293 l 4.26367,-11.05469 4.20703,11.05469 h 2.5293 l 5.44531,-14.57422 h -2.36523 l -4.34375,11.66016 -4.31836,-11.66016 h -2.22656 l -4.40039,11.60547 -4.23438,-11.60547 z m -15.91796,2.08984 c 2.5575,0 4.40078,1.73219 4.67578,4.17969 h -9.35157 c 0.275,-2.475 2.14579,-4.17969 4.67579,-4.17969 z m 48.77539,0.082 c 2.805,0 4.89453,2.00774 4.89453,5.11524 0,3.1075 -2.08953,5.14258 -4.89453,5.14258 -2.805,0 -4.92188,-2.03508 -4.92188,-5.14258 0,-3.1075 2.11688,-5.11524 4.92188,-5.11524 z m -103.44532,0.63282 c 1.925,0 3.32641,1.21007 3.62891,3.08008 h -7.28711 c 0.3025,-1.89751 1.7057,-3.08008 3.6582,-3.08008 z m -26.20703,5.58203 h 2.94336 v 1.51367 c -0.495,1.3475 -1.73406,2.00781 -3.16406,2.00781 -1.5125,0 -2.41992,-0.71461 -2.41992,-1.78711 0,-0.99 0.63312,-1.73437 2.64062,-1.73437 z m 118.91797,20.15817 v 8.0293 c -1.21,-1.5675 -3.02539,-2.3359 -5.08789,-2.3359 -4.2625,0 -7.37109,2.9688 -7.37109,7.4238 0,4.455 3.10859,7.4531 7.37109,7.4531 2.145,0 4.01477,-0.8246 5.19727,-2.4746 v 2.3086 h 2.52929 v -20.4043 z m -100.84961,5.6934 c -4.3725,0 -7.58984,3.0788 -7.58984,7.4238 0,4.345 3.21734,7.4531 7.58984,7.4531 4.3725,0 7.5625,-3.1081 7.5625,-7.4531 0,-4.345 -3.19,-7.4238 -7.5625,-7.4238 z m 45.04492,0 c -2.31,0 -4.17945,0.8509 -5.25195,2.3359 v -2.1992 h -2.5293 v 14.5742 h 2.63868 v -7.5058 c 0,-3.1625 1.81609,-4.8399 4.62109,-4.8399 2.5025,0 3.93164,1.4017 3.93164,4.2617 v 8.084 h 2.64063 v -8.3867 c 0,-4.29 -2.50329,-6.3242 -6.05079,-6.3242 z m 17.03907,0 c -4.2075,0 -7.31641,3.1063 -7.31641,7.4238 0,4.345 3.13539,7.4531 7.83789,7.4531 2.42,0 4.42805,-0.8252 5.74805,-2.3652 l -1.45703,-1.7051 c -1.0725,1.1825 -2.50399,1.7598 -4.20899,1.7598 -2.8875,0 -4.94929,-1.7042 -5.27929,-4.2617 h 11.82421 c 0.0275,-0.2475 0.0566,-0.5789 0.0566,-0.7989 0,-4.4824 -2.99757,-7.5058 -7.20507,-7.5058 z m 16.81054,0 c -4.2075,0 -7.31445,3.1063 -7.31445,7.4238 0,4.345 3.13539,7.4531 7.83789,7.4531 2.42,0 4.42609,-0.8252 5.74609,-2.3652 l -1.45703,-1.7051 c -1.0725,1.1825 -2.50203,1.7598 -4.20703,1.7598 -2.8875,0 -4.94929,-1.7042 -5.27929,-4.2617 h 11.82421 c 0.0275,-0.2475 0.0547,-0.5789 0.0547,-0.7989 0,-4.4824 -2.99758,-7.5058 -7.20508,-7.5058 z m -102.62695,0.1367 6.43555,14.5469 -0.4668,1.0176 c -0.715,1.6775 -1.51234,2.2558 -2.77734,2.2558 -0.99,0 -1.89828,-0.3847 -2.61328,-1.0722 l -1.12696,1.9804 c 0.9075,0.88 2.33774,1.3457 3.74024,1.3457 2.2275,0 3.90476,-0.961 5.19726,-4.041 l 7.06641,-16.0332 h -2.58399 l -5.0332,11.6602 -5.08789,-11.6602 z m 34.80859,0 v 8.3867 c 0,4.29 2.50203,6.3535 6.26954,6.3535 2.0625,0 3.87867,-0.8527 4.95117,-2.3652 v 2.1992 h 2.50195 v -14.5742 h -2.64062 v 7.5352 c 0,3.135 -1.75977,4.8398 -4.50977,4.8398 -2.5025,0 -3.93164,-1.4291 -3.93164,-4.2891 v -8.0859 z m 51.00782,2.0899 c 2.5575,0 4.39882,1.7321 4.67382,4.1796 h -9.3496 c 0.275,-2.475 2.14578,-4.1796 4.67578,-4.1796 z m 16.81054,0 c 2.5575,0 4.40078,1.7321 4.67578,4.1796 h -9.3496 c 0.275,-2.475 2.14382,-4.1796 4.67382,-4.1796 z m -78.89453,0.082 c 2.805,0 4.89453,2.0077 4.89453,5.1152 0,3.1075 -2.08953,5.1426 -4.89453,5.1426 -2.805,0 -4.92187,-2.0351 -4.92187,-5.1426 0,-3.1075 2.11687,-5.1152 4.92187,-5.1152 z m 95.98047,0 c 2.7775,0 4.89649,2.0077 4.89648,5.1152 0,3.1075 -2.11898,5.1426 -4.89648,5.1426 -2.805,0 -4.92187,-2.0351 -4.92187,-5.1426 0,-3.1075 2.11687,-5.1152 4.92187,-5.1152 z m 13.13672,8.8008 c -1.0175,0 -1.87109,0.7691 -1.87109,1.8691 0,1.1 0.85359,1.8984 1.87109,1.8984 0.99,0 1.81445,-0.7984 1.81445,-1.8984 0,-1.1 -0.82445,-1.8691 -1.81445,-1.8691 z"/></g><g style="font-style:normal;font-weight:400;line-height:0%;font-family:sans-serif;letter-spacing:0;word-spacing:0;fill:#1c366b;fill-opacity:1;stroke:none;stroke-width:1px;stroke-linecap:butt;stroke-linejoin:miter;stroke-opacity:1" id="text3361-5" aria-label="Skip the work you don't."><path style="font-style:normal;font-variant:normal;font-weight:500;font-stretch:normal;font-size:27.5px;line-height:1.25;font-family:montserrat;-inkscape-font-specification:'montserrat Medium';text-align:center;text-anchor:middle;fill:#1c366b;fill-opacity:1" id="path123" d="m 442.88867,965.8457 c -1.595,0 -2.66797,1.04313 -2.66797,2.39063 0,1.3475 1.07297,2.39258 2.66797,2.39258 1.595,0 2.66797,-1.04461 2.66797,-2.47461 0,-1.32 -1.07297,-2.3086 -2.66797,-2.3086 z m -20.1914,1.23633 v 20.4043 h 4.28906 v -3.76563 l 2.0625,-2.03515 4.67578,5.80078 h 5.19727 l -6.71094,-8.52344 6.16015,-6.27148 h -5.11523 l -6.26953,5.9414 v -11.55078 z m 64.97461,0 v 20.4043 h 2.64062 v -7.50586 c 0,-3.1625 1.81414,-4.83985 4.61914,-4.83985 2.5025,0 3.93359,1.40172 3.93359,4.26172 v 8.08399 h 2.63868 v -8.38672 c 0,-4.29 -2.50133,-6.32422 -6.04883,-6.32422 -2.2275,0 -4.04258,0.79672 -5.14258,2.19922 v -7.89258 z m 95.875,0 v 20.4043 h 2.63867 V 983.5 l 3.02539,-2.80469 5.47265,6.79102 h 3.24414 l -6.73632,-8.55078 6.13281,-6.02344 h -3.19141 l -7.94726,7.25977 v -13.08985 z m -171.12696,0.82617 c -5.4725,0 -8.11133,2.72164 -8.11133,5.99414 0,7.15 11.19141,4.67485 11.19141,8.27735 0,1.1825 -1.07289,2.0625 -3.71289,2.0625 -2.31,0 -4.72906,-0.82532 -6.35156,-2.00781 l -1.51367,3.35546 c 1.70499,1.32 4.78539,2.22657 7.83789,2.22657 5.5,0 8.16796,-2.7493 8.16796,-5.9668 0,-7.0675 -11.19336,-4.62047 -11.19335,-8.16797 0,-1.21 1.0182,-2.19922 3.6582,-2.19922 1.705,0 3.54844,0.49422 5.33594,1.51172 l 1.375,-3.38281 c -1.7875,-1.1275 -4.2636,-1.70313 -6.6836,-1.70313 z m 64.25,1.81446 v 3.18945 h -2.47461 v 2.17187 h 2.47461 v 8.00391 c 0,2.9425 1.6786,4.56445 4.6211,4.56445 1.1825,0 2.39195,-0.33007 3.18945,-1.01757 l -0.82617,-1.89844 c -0.55,0.44 -1.2925,0.6875 -2.0625,0.6875 -1.4575,0 -2.28125,-0.87977 -2.28125,-2.44727 v -7.89258 h 4.17968 v -2.17187 h -4.17968 v -3.18945 z m -18.91015,2.75 c -1.98,0 -3.57594,0.63132 -4.64844,1.92382 v -1.70507 h -4.09571 v 20.13086 h 4.28907 v -6.90235 c 1.1,1.21 2.61258,1.78711 4.45508,1.78711 4.1525,0 7.36914,-2.96969 7.36914,-7.61719 0,-4.6475 -3.21664,-7.61718 -7.36914,-7.61718 z m -17.01563,0.21875 v 14.79492 h 4.28906 v -14.79492 z m 71.74805,0.084 c -4.2075,0 -7.31446,3.10633 -7.31446,7.42383 0,4.345 3.13344,7.45312 7.83594,7.45312 2.42,0 4.42805,-0.82523 5.74805,-2.36523 l -1.45703,-1.70508 c -1.0725,1.1825 -2.50203,1.75977 -4.20703,1.75977 -2.8875,0 -4.95125,-1.70422 -5.28125,-4.26172 h 11.82617 c 0.0275,-0.2475 0.0547,-0.57688 0.0547,-0.79688 0,-4.4825 -2.99758,-7.50781 -7.20508,-7.50781 z m 48.77539,0 c -4.3725,0 -7.58985,3.07883 -7.58985,7.42383 0,4.345 3.21735,7.45312 7.58985,7.45312 4.3725,0 7.5625,-3.10812 7.5625,-7.45312 0,-4.345 -3.19,-7.42383 -7.5625,-7.42383 z m 19.05078,0 c -2.5575,0 -4.37164,0.87898 -5.30664,2.58399 v -2.44727 h -2.5293 v 14.57422 h 2.63867 v -7.25977 c 0,-3.19 1.76125,-4.92187 4.59375,-4.92187 0.1925,0 0.38352,-1.6e-4 0.60352,0.0273 z m -51.9082,0.13672 5.41796,14.57422 h 2.5293 l 4.26367,-11.05469 4.20703,11.05469 h 2.5293 l 5.44531,-14.57422 h -2.36523 l -4.34375,11.66016 -4.31836,-11.66016 h -2.22656 l -4.40039,11.60547 -4.23438,-11.60547 z m -15.91797,2.08984 c 2.5575,0 4.39883,1.73219 4.67383,4.17969 h -9.34961 c 0.275,-2.475 2.14578,-4.17969 4.67578,-4.17969 z m 48.77539,0.082 c 2.805,0 4.89453,2.00774 4.89453,5.11524 0,3.1075 -2.08953,5.14258 -4.89453,5.14258 -2.805,0 -4.92188,-2.03508 -4.92188,-5.14258 0,-3.1075 2.11688,-5.11524 4.92188,-5.11524 z m -104.25,0.90821 c 2.145,0 3.76758,1.54015 3.76758,4.09765 0,2.5575 -1.62258,4.09766 -3.76758,4.09766 -2.145,0 -3.76758,-1.54016 -3.76758,-4.09766 0,-2.5575 1.62258,-4.09765 3.76758,-4.09765 z m 47.05469,25.46481 v 8.0293 c -1.21,-1.5675 -3.02539,-2.3359 -5.08789,-2.3359 -4.2625,0 -7.36915,2.9688 -7.36915,7.4238 0,4.455 3.10665,7.4531 7.36915,7.4531 2.14499,0 4.01476,-0.8246 5.19726,-2.4746 v 2.3086 h 2.53125 v -20.4043 z m 43.0664,1.1543 0.16602,7.4258 h 1.95117 l 0.19336,-7.4258 z m 6.95508,1.4864 v 3.1894 h -2.47461 v 2.1719 h 2.47461 v 8.0039 c 0,2.9425 1.67859,4.5644 4.62109,4.5644 1.1825,0 2.39196,-0.33 3.18946,-1.0175 l -0.82422,-1.8985 c -0.55,0.44 -1.2925,0.6875 -2.0625,0.6875 -1.4575,0 -2.2832,-0.8797 -2.2832,-2.4472 v -7.8926 h 4.17968 v -2.1719 h -4.17968 v -3.1894 z m -98.39453,3.0527 c -4.3725,0 -7.58985,3.0788 -7.58984,7.4238 0,4.345 3.21734,7.4531 7.58984,7.4531 4.3725,0 7.5625,-3.1081 7.5625,-7.4531 0,-4.345 -3.19,-7.4238 -7.5625,-7.4238 z m 62.25,0 c -4.3725,0 -7.58985,3.0788 -7.58984,7.4238 0,4.345 3.21734,7.4531 7.58984,7.4531 4.3725,0 7.5625,-3.1081 7.5625,-7.4531 0,-4.345 -3.19,-7.4238 -7.5625,-7.4238 z m 18.99609,0 c -2.31,0 -4.17945,0.8509 -5.25195,2.3359 v -2.1992 h -2.5293 v 14.5742 h 2.63867 v -7.5058 c 0,-3.1625 1.8161,-4.8399 4.6211,-4.8399 2.5025,0 3.93164,1.4017 3.93164,4.2617 v 8.084 h 2.64062 v -8.3867 c 0,-4.29 -2.50328,-6.3242 -6.05078,-6.3242 z m -104.97851,0.1367 6.43554,14.5469 -0.46679,1.0176 c -0.715,1.6775 -1.51235,2.2558 -2.77735,2.2558 -0.99,0 -1.89828,-0.3847 -2.61328,-1.0722 l -1.12695,1.9804 c 0.9075,0.88 2.33773,1.3457 3.74023,1.3457 2.2275,0 3.90477,-0.961 5.19727,-4.041 l 7.06641,-16.0332 h -2.58399 l -5.0332,11.6602 -5.08789,-11.6602 z m 34.80859,0 v 8.3867 c 0,4.29 2.50203,6.3535 6.26953,6.3535 2.0625,0 3.87867,-0.8527 4.95117,-2.3652 v 2.1992 h 2.50196 v -14.5742 h -2.64063 v 7.5352 c 0,3.135 -1.75976,4.8398 -4.50976,4.8398 -2.5025,0 -3.93164,-1.4291 -3.93164,-4.2891 v -8.0859 z m -11.07617,2.1719 c 2.805,0 4.89453,2.0077 4.89453,5.1152 0,3.1075 -2.08953,5.1426 -4.89453,5.1426 -2.805,0 -4.92188,-2.0351 -4.92188,-5.1426 0,-3.1075 2.11688,-5.1152 4.92188,-5.1152 z m 43.50586,0 c 2.7775,0 4.89453,2.0077 4.89453,5.1152 0,3.1075 -2.11703,5.1426 -4.89453,5.1426 -2.805,0 -4.92188,-2.0351 -4.92188,-5.1426 0,-3.1075 2.11688,-5.1152 4.92188,-5.1152 z m 18.74414,0 c 2.805,0 4.89648,2.0077 4.89648,5.1152 0,3.1075 -2.09148,5.1426 -4.89648,5.1426 -2.805,0 -4.92188,-2.0351 -4.92188,-5.1426 0,-3.1075 2.11688,-5.1152 4.92188,-5.1152 z m 48.04883,8.8008 c -1.0175,0 -1.8711,0.7691 -1.8711,1.8691 0,1.1 0.8536,1.8984 1.8711,1.8984 0.99,0 1.81445,-0.7984 1.81445,-1.8984 0,-1.1 -0.82445,-1.8691 -1.81445,-1.8691 z"/></g><g style="font-style:normal;font-variant:normal;font-weight:400;font-stretch:normal;line-height:0%;font-family:montserrat;-inkscape-font-specification:montserrat;letter-spacing:0;word-spacing:0;fill:#1c366b;fill-opacity:1;stroke:none;stroke-width:1px;stroke-linecap:butt;stroke-linejoin:miter;stroke-opacity:1" id="text3361-8" aria-label="See evidence of reproducibility."><path style="font-style:normal;font-variant:normal;font-weight:500;font-stretch:normal;font-family:montserrat;-inkscape-font-specification:'montserrat Medium'" id="path185" d="m 816.20898,966.66992 c -1.0175,0 -1.7871,0.76992 -1.7871,1.73242 0,0.9625 0.7696,1.70508 1.7871,1.70508 1.045,0 1.78907,-0.76976 1.78907,-1.75976 0,-0.935 -0.77157,-1.67774 -1.78907,-1.67774 z m 17.47071,0.41211 v 8.0293 c -1.21,-1.5675 -3.02539,-2.33594 -5.08789,-2.33594 -4.2625,0 -7.36914,2.96883 -7.36914,7.42383 0,4.455 3.10664,7.45312 7.36914,7.45312 2.145,0 4.01672,-0.82461 5.19922,-2.47461 v 2.3086 h 2.52929 v -20.4043 z m -103.60157,0.82617 c -5.47249,0 -8.11328,2.72164 -8.11328,5.99414 0,7.15 11.19336,4.67485 11.19336,8.27735 0,1.1825 -1.07289,2.0625 -3.71289,2.0625 -2.31,0 -4.73101,-0.82532 -6.35351,-2.00781 l -1.51172,3.35546 c 1.705,1.32 4.78539,2.22657 7.83789,2.22657 5.5,0 8.16601,-2.7493 8.16601,-5.9668 0,-7.0675 -11.1914,-4.62047 -11.1914,-8.16797 0,-1.21 1.0182,-2.19922 3.6582,-2.19922 1.705,0 3.54649,0.49422 5.33399,1.51172 l 1.375,-3.38281 c -1.7875,-1.1275 -4.26164,-1.70313 -6.68165,-1.70313 z m 17.06836,4.56446 c -4.51,0 -7.89257,3.18968 -7.89257,7.61718 0,4.4 3.3264,7.61719 8.4414,7.61719 2.6675,0 4.73047,-0.82508 6.10547,-2.39258 l -2.2832,-2.47461 c -1.0175,0.9625 -2.14344,1.42969 -3.71094,1.42969 -2.255,0 -3.82383,-1.1282 -4.23633,-2.9707 h 11.19336 c 0.0275,-0.3575 0.082,-0.8243 0.082,-1.1543 0,-4.7575 -3.35422,-7.67187 -7.69922,-7.67187 z m 17.34766,0 c -4.51,0 -7.89258,3.18968 -7.89258,7.61718 0,4.4 3.32836,7.61719 8.44336,7.61719 2.6675,0 4.73047,-0.82508 6.10547,-2.39258 l -2.2832,-2.47461 c -1.0175,0.9625 -2.14539,1.42969 -3.71289,1.42969 -2.255,0 -3.82188,-1.1282 -4.23438,-2.9707 h 11.19141 c 0.0275,-0.3575 0.084,-0.8243 0.084,-1.1543 0,-4.7575 -3.35617,-7.67187 -7.70117,-7.67187 z m 24.45898,0.30273 c -4.20749,0 -7.31445,3.10633 -7.31445,7.42383 0,4.345 3.13344,7.45312 7.83594,7.45312 2.42,0 4.42805,-0.82523 5.74805,-2.36523 l -1.45704,-1.70508 c -1.07249,1.1825 -2.50203,1.75977 -4.20703,1.75977 -2.8875,0 -4.95125,-1.70422 -5.28125,-4.26172 h 11.82618 c 0.0275,-0.2475 0.0547,-0.57688 0.0547,-0.79688 0,-4.4825 -2.99757,-7.50781 -7.20508,-7.50781 z m 58.33008,0 c -4.2075,0 -7.31445,3.10633 -7.31445,7.42383 0,4.345 3.13344,7.45312 7.83594,7.45312 2.42,0 4.42804,-0.82523 5.74804,-2.36523 l -1.45703,-1.70508 c -1.0725,1.1825 -2.50203,1.75977 -4.20703,1.75977 -2.8875,0 -4.95125,-1.70422 -5.28125,-4.26172 h 11.82617 c 0.0275,-0.2475 0.0547,-0.57688 0.0547,-0.79688 0,-4.4825 -2.99758,-7.50781 -7.20508,-7.50781 z m 18.62696,0 c -2.31,0 -4.18141,0.85094 -5.25391,2.33594 v -2.19922 h -2.5293 v 14.57422 h 2.64063 v -7.50586 c 0,-3.1625 1.81414,-4.83985 4.61914,-4.83985 2.5025,0 3.93359,1.40172 3.93359,4.26172 v 8.08399 h 2.63867 v -8.38672 c 0,-4.29 -2.50132,-6.32422 -6.04882,-6.32422 z m 17.42187,0 c -4.4825,0 -7.69922,3.07883 -7.69922,7.42383 0,4.345 3.21672,7.45312 7.69922,7.45312 2.6125,0 4.78445,-1.09976 5.93945,-3.13476 l -2.00781,-1.26563 c -0.935,1.43 -2.36398,2.08985 -3.95898,2.08985 -2.86,0 -5.00586,-1.98008 -5.00586,-5.14258 0,-3.1075 2.14586,-5.11524 5.00586,-5.11524 1.595,0 3.02398,0.65985 3.95898,2.08985 l 2.00781,-1.29102 c -1.155,-2.035 -3.32695,-3.10742 -5.93945,-3.10742 z m 15.08399,0 c -4.2075,0 -7.31446,3.10633 -7.31446,7.42383 0,4.345 3.13344,7.45312 7.83594,7.45312 2.42,0 4.42805,-0.82523 5.74805,-2.36523 l -1.45703,-1.70508 c -1.0725,1.1825 -2.50204,1.75977 -4.20704,1.75977 -2.8875,0 -4.95125,-1.70422 -5.28125,-4.26172 h 11.82618 c 0.0275,-0.2475 0.0547,-0.57688 0.0547,-0.79688 0,-4.4825 -2.99757,-7.50781 -7.20507,-7.50781 z m -101.44532,0.13672 6.38086,14.57422 h 2.69336 l 6.38086,-14.57422 h -2.58594 l -5.11328,11.6875 -5.00586,-11.6875 z m 17.91797,0 v 14.57422 h 2.64063 v -14.57422 z m -25.93555,2.08984 c 2.55751,0 4.39883,1.73219 4.67383,4.17969 h -9.34961 c 0.275,-2.475 2.14579,-4.17969 4.67578,-4.17969 z m 58.33008,0 c 2.5575,0 4.39883,1.73219 4.67383,4.17969 h -9.34961 c 0.275,-2.475 2.14578,-4.17969 4.67578,-4.17969 z m 51.13282,0 c 2.5575,0 4.39882,1.73219 4.67382,4.17969 h -9.34961 c 0.275,-2.475 2.14579,-4.17969 4.67579,-4.17969 z m -69.60352,0.082 c 2.7775,0 4.89453,2.00774 4.89453,5.11524 0,3.1075 -2.11703,5.14258 -4.89453,5.14258 -2.805,0 -4.92188,-2.03508 -4.92188,-5.14258 0,-3.1075 2.11688,-5.11524 4.92188,-5.11524 z m -81.63867,0.63282 c 1.925,0 3.3264,1.21007 3.6289,3.08008 h -7.28711 c 0.30251,-1.89751 1.70571,-3.08008 3.65821,-3.08008 z m 17.34765,0 c 1.925,0 3.32836,1.21007 3.63086,3.08008 h -7.28711 c 0.3025,-1.89751 1.70375,-3.08008 3.65625,-3.08008 z m 93.74414,25.3281 c -1.0175,0 -1.7871,0.7699 -1.7871,1.7324 0,0.9625 0.76961,1.7051 1.7871,1.7051 1.045,0 1.78711,-0.7697 1.78711,-1.7597 0,-0.935 -0.76961,-1.6778 -1.78711,-1.6778 z m 26.42579,0 c -1.0175,0 -1.78711,0.7699 -1.78711,1.7324 0,0.9625 0.76961,1.7051 1.78711,1.7051 1.045,0 1.78711,-0.7697 1.78711,-1.7597 0,-0.935 -0.76961,-1.6778 -1.78711,-1.6778 z m 15.36132,0 c -1.0175,0 -1.7871,0.7699 -1.78711,1.7324 0,0.9625 0.76961,1.7051 1.78711,1.7051 1.045,0 1.78711,-0.7697 1.78711,-1.7597 0,-0.935 -0.76961,-1.6778 -1.78711,-1.6778 z m -183.03711,0.2481 c -3.10749,0 -4.81249,1.8686 -4.8125,4.7011 v 1.293 h -2.4746 v 2.1719 h 2.4746 v 12.4023 h 2.64063 v -12.4023 h 4.17969 v -2.1719 h -4.23438 v -1.2656 c 0,-1.6775 0.79578,-2.5567 2.36328,-2.5567 0.77,0 1.48516,0.275 2.03516,0.6875 l 0.79883,-2.0078 c -0.7425,-0.5775 -1.8432,-0.8515 -2.97071,-0.8515 z m 97.97266,0.164 v 8.0293 c -1.21,-1.5675 -3.02539,-2.3359 -5.08789,-2.3359 -4.2625,0 -7.36914,2.9688 -7.36914,7.4238 0,4.455 3.10664,7.4531 7.36914,7.4531 2.145,0 4.01672,-0.8246 5.19922,-2.4746 v 2.3086 h 2.5293 v -20.4043 z m 49.63672,0 v 20.4043 h 2.53125 v -2.3086 c 1.1825,1.65 3.05227,2.4746 5.19727,2.4746 4.2625,0 7.36914,-2.9981 7.36914,-7.4531 0,-4.455 -3.10664,-7.4238 -7.36914,-7.4238 -2.0625,0 -3.8779,0.7684 -5.0879,2.3359 v -8.0293 z m 26.42578,0 v 20.4043 h 2.64063 v -20.4043 z m 15.74805,2.6407 v 3.1894 h -2.47656 v 2.1719 h 2.47656 v 8.0039 c 0,2.9425 1.67664,4.5644 4.61914,4.5644 1.1825,0 2.39195,-0.33 3.18945,-1.0175 l -0.82422,-1.8985 c -0.55,0.44 -1.2925,0.6875 -2.0625,0.6875 -1.4575,0 -2.2832,-0.8797 -2.2832,-2.4472 v -7.8926 h 4.17969 v -2.1719 h -4.17969 v -3.1894 z m -170.00977,3.0507 c -2.5575,0 -4.37164,0.881 -5.30664,2.586 v -2.4473 h -2.53125 v 14.5742 h 2.64063 v -7.2597 c 0,-3.19 1.76125,-4.9219 4.59375,-4.9219 0.1925,0 0.38351,3e-4 0.60351,0.027 z m 46.51367,0 c -2.5575,0 -4.37164,0.881 -5.30664,2.586 v -2.4473 h -2.53125 v 14.5742 h 2.64063 v -7.2597 c 0,-3.19 1.76125,-4.9219 4.59375,-4.9219 0.1925,0 0.38351,3e-4 0.60351,0.027 z m -82.69726,0 c -4.3725,0 -7.58985,3.0788 -7.58985,7.4238 0,4.345 3.21735,7.4531 7.58985,7.4531 4.3725,0 7.5625,-3.1081 7.5625,-7.4531 0,-4.345 -3.19,-7.4238 -7.5625,-7.4238 z m 45.27148,0 c -4.2075,0 -7.31445,3.1063 -7.31445,7.4238 0,4.345 3.13344,7.4531 7.83594,7.4531 2.42,0 4.42804,-0.8252 5.74804,-2.3652 l -1.45703,-1.7051 c -1.0725,1.1825 -2.50203,1.7598 -4.20703,1.7598 -2.8875,0 -4.95125,-1.7042 -5.28125,-4.2617 h 11.82617 c 0.0275,-0.2475 0.0547,-0.5789 0.0547,-0.7989 0,-4.4824 -2.99758,-7.5058 -7.20508,-7.5058 z m 18.57032,0 c -2.145,0 -4.01477,0.8248 -5.19727,2.4473 v -2.3106 h -2.5293 v 19.9102 h 2.64063 v -7.5352 c 1.21,1.5675 3.02344,2.3652 5.08594,2.3652 4.2625,0 7.37109,-2.9706 7.37109,-7.4531 0,-4.455 -3.10859,-7.4238 -7.37109,-7.4238 z m 28.21875,0 c -4.3725,0 -7.58985,3.0788 -7.58985,7.4238 0,4.345 3.21735,7.4531 7.58985,7.4531 4.3725,0 7.5625,-3.1081 7.5625,-7.4531 0,-4.345 -3.19,-7.4238 -7.5625,-7.4238 z m 54.94726,0 c -4.4825,0 -7.69922,3.0788 -7.69922,7.4238 0,4.345 3.21672,7.4531 7.69922,7.4531 2.6125,0 4.78641,-1.0997 5.94141,-3.1347 l -2.00781,-1.2656 c -0.935,1.43 -2.36594,2.0898 -3.96094,2.0898 -2.86,0 -5.00391,-1.9801 -5.00391,-5.1426 0,-3.1075 2.14391,-5.1152 5.00391,-5.1152 1.595,0 3.02593,0.6598 3.96094,2.0898 l 2.00781,-1.291 c -1.155,-2.035 -3.32891,-3.1074 -5.94141,-3.1074 z m -25.12695,0.1367 v 8.3867 c 0,4.29 2.50203,6.3535 6.26953,6.3535 2.0625,0 3.87867,-0.8527 4.95117,-2.3652 v 2.1992 h 2.50195 v -14.5742 h -2.64062 v 7.5352 c 0,3.135 -1.75977,4.8398 -4.50977,4.8398 -2.5025,0 -3.93164,-1.4291 -3.93164,-4.2891 v -8.0859 z m 34.45898,0 v 14.5742 h 2.64063 v -14.5742 z m 26.42578,0 v 14.5742 h 2.64063 v -14.5742 z m 15.36133,0 v 14.5742 h 2.64063 v -14.5742 z m 16.24219,0 6.43359,14.5469 -0.46679,1.0176 c -0.715,1.6775 -1.51235,2.2558 -2.77735,2.2558 -0.99,0 -1.89828,-0.3847 -2.61328,-1.0722 l -1.12695,1.9804 c 0.9075,0.88 2.33773,1.3457 3.74023,1.3457 2.2275,0 3.90477,-0.961 5.19727,-4.041 l 7.0664,-16.0332 h -2.58398 l -5.0332,11.6602 -5.08594,-11.6602 z m -169.09766,2.0899 c 2.5575,0 4.39883,1.7321 4.67383,4.1796 h -9.34961 c 0.275,-2.475 2.14578,-4.1796 4.67578,-4.1796 z m -45.27148,0.082 c 2.805,0 4.89453,2.0077 4.89453,5.1152 0,3.1075 -2.08953,5.1426 -4.89453,5.1426 -2.805,0 -4.92383,-2.0351 -4.92383,-5.1426 0,-3.1075 2.11883,-5.1152 4.92383,-5.1152 z m 63.62305,0 c 2.805,0 4.92187,2.0352 4.92187,5.1152 0,3.1075 -2.11687,5.1426 -4.92187,5.1426 -2.7775,0 -4.89454,-2.0351 -4.89454,-5.1426 0,-3.08 2.11704,-5.1152 4.89454,-5.1152 z m 28.4375,0 c 2.805,0 4.89453,2.0077 4.89453,5.1152 0,3.1075 -2.08953,5.1426 -4.89453,5.1426 -2.805,0 -4.92383,-2.0351 -4.92383,-5.1426 0,-3.1075 2.11883,-5.1152 4.92383,-5.1152 z m 17.45507,0 c 2.7775,0 4.89454,2.0077 4.89453,5.1152 0,3.1075 -2.11703,5.1426 -4.89453,5.1426 -2.805,0 -4.92187,-2.0351 -4.92187,-5.1426 0,-3.1075 2.11687,-5.1152 4.92187,-5.1152 z m 62.01172,0 c 2.805,0 4.92383,2.0077 4.92383,5.1152 0,3.1075 -2.11883,5.1426 -4.92383,5.1426 -2.7775,0 -4.89453,-2.0351 -4.89453,-5.1426 0,-3.1075 2.11703,-5.1152 4.89453,-5.1152 z m 60.47852,8.8008 c -1.0175,0 -1.86914,0.7691 -1.86914,1.8691 0,1.1 0.85164,1.8984 1.86914,1.8984 0.99,0 1.8164,-0.7984 1.8164,-1.8984 0,-1.1 -0.8264,-1.8691 -1.8164,-1.8691 z"/></g><g id="g3445" transform="matrix(1.6282024,0,0,1.6282048,733.23188,770.95193)" style="fill:#1c366b;fill-opacity:1"><path style="fill:#1c366b;fill-opacity:1" id="path3447" d="m 76.961,54.103 c 0,14.866 -12.095,26.961 -26.961,26.961 -14.866,0 -26.961,-12.095 -26.961,-26.961 0,-13.299 9.682,-24.372 22.365,-26.561 l 0,7.806 27.199,-15.704 -27.199,-15.707 0,8.462 C 24.422,14.695 8.039,32.519 8.039,54.103 c 0,23.137 18.824,41.96 41.961,41.96 23.138,0 41.961,-18.823 41.961,-41.961 l -15,0 z"/></g><flowRoot id="flowRoot4189" xml:space="preserve" style="font-style:normal;font-weight:400;line-height:.01%;font-family:sans-serif;letter-spacing:0;word-spacing:0;fill:#1c366b;fill-opacity:1;stroke:none;stroke-width:1px;stroke-linecap:butt;stroke-linejoin:miter;stroke-opacity:1"><flowRegion id="flowRegion4191"><rect id="rect4193" width="26.136" height="203.409" x="103.409" y="-186.364" style="fill:#1c366b;fill-opacity:1"/></flowRegion><flowPara id="flowPara4195" style="font-size:40px;line-height:1.25"/></flowRoot><g id="g4206" transform="matrix(5.7692308,0,0,5.7692308,-3194.214,-3503.407)" style="fill:#1c366b;fill-opacity:1"><g id="g4208" style="fill:#1c366b;fill-opacity:1"><polygon id="polygon4210" points="584 742 584 747 593 747 593 756 598 756 598 742" style="fill:#1c366b;fill-opacity:1"/><polygon id="polygon4212" points="578 748 578 753 587 753 587 762 592 762 592 748" style="fill:#1c366b;fill-opacity:1"/><rect id="rect4214" width="14" height="14" x="572" y="754" style="fill:#1c366b;fill-opacity:1"/></g></g><g id="g4266" transform="matrix(3.7406484,0,0,3.7406484,375.4312,722.7487)" style="fill:#1c366b;fill-opacity:1"><polygon id="polygon4268" points="7.4 34.6 28.2 54.7 59.2 19.2 54 14.6 27.8 44.5 12.2 29.5" style="fill:#1c366b;fill-opacity:1"/></g></g></svg>